<svg width="23" height="24" viewBox="0 0 23 24" fill="none" xmlns="http://www.w3.org/2000/svg">
<path d="M18.5015 11.5729C18.4648 11.2301 18.3992 10.8853 18.3084 10.5463C18.2181 10.2091 18.1035 9.88183 17.9656 9.56829L19.279 7.81772C19.5872 7.40618 19.5462 6.82202 19.1826 6.45559L17.6109 4.88394C17.2456 4.51917 16.6598 4.47767 16.2478 4.7875L14.4994 6.10252C13.8485 5.81445 13.1777 5.63382 12.5006 5.56508L11.6419 3.55217C11.4397 3.07894 10.9126 2.82228 10.4144 2.95576L8.26937 3.53053C7.77119 3.66402 7.44305 4.14983 7.50478 4.6617L7.76791 6.83536C7.21558 7.2369 6.7201 7.73418 6.3132 8.296L4.13246 8.0338C3.62097 7.9724 3.13538 8.30097 3.00115 8.7986L2.42673 10.9453C2.29324 11.4449 2.55127 11.9731 3.02656 12.1735L5.0351 13.0245C5.07187 13.3673 5.1374 13.7121 5.22823 14.0511C5.31857 14.3883 5.43313 14.7156 5.57105 15.0291L4.25761 16.7797C3.94946 17.1912 3.99065 17.7753 4.35404 18.1418L5.92486 19.7137C6.28973 20.0776 6.87566 20.1191 7.28792 19.8101L9.03638 18.4951C9.6872 18.7832 10.3578 18.9639 11.0352 19.0326L11.8938 21.0455C12.097 21.5185 12.6241 21.7751 13.1222 21.6416L15.2673 21.0669C15.7655 20.9334 16.0936 20.4476 16.0319 19.9357L15.7687 17.762C16.3211 17.3605 16.8165 16.8632 17.2234 16.3014L19.4042 16.5636C19.918 16.6254 20.4026 16.2971 20.5355 15.7988L21.1099 13.6521C21.2434 13.1525 20.9854 12.6243 20.5101 12.4239L18.5015 11.5729ZM12.712 15.8203C10.77 16.3407 8.76707 15.1841 8.24675 13.2423C7.72643 11.3005 8.88276 9.29738 10.8248 8.77701C12.7666 8.2567 14.7696 9.41325 15.2899 11.3551C15.8102 13.2969 14.6539 15.3 12.712 15.8203Z" fill="#651FFF" fill-opacity="0.75"/>
</svg>
