<svg width="23" height="24" viewBox="0 0 23 24" fill="none" xmlns="http://www.w3.org/2000/svg">
<path d="M18.5015 11.5729C18.4648 11.2301 18.3992 10.8853 18.3084 10.5463C18.2181 10.2091 18.1035 9.88183 17.9656 9.56829L19.279 7.81772C19.5872 7.40618 19.5462 6.82202 19.1826 6.45559L17.6108 4.88394C17.2455 4.51917 16.6598 4.47767 16.2478 4.7875L14.4993 6.10252C13.8485 5.81445 13.1777 5.63382 12.5006 5.56508L11.6419 3.55217C11.4397 3.07894 10.9126 2.82228 10.4144 2.95576L8.26935 3.53053C7.77118 3.66402 7.44304 4.14983 7.50476 4.6617L7.7679 6.83536C7.21557 7.2369 6.72009 7.73418 6.31319 8.296L4.13245 8.0338C3.62095 7.9724 3.13536 8.30097 3.00114 8.7986L2.42672 10.9453C2.29322 11.4449 2.55125 11.9731 3.02654 12.1735L5.03509 13.0245C5.07185 13.3673 5.13738 13.7121 5.22822 14.0511C5.31856 14.3883 5.43311 14.7156 5.57103 15.0291L4.25759 16.7797C3.94944 17.1912 3.99064 17.7753 4.35403 18.1418L5.92485 19.7137C6.28972 20.0776 6.87564 20.1191 7.28791 19.8101L9.03636 18.4951C9.68718 18.7832 10.3578 18.9639 11.0351 19.0326L11.8938 21.0455C12.097 21.5185 12.624 21.7751 13.1222 21.6416L15.2673 21.0669C15.7654 20.9334 16.0936 20.4476 16.0319 19.9357L15.7687 17.762C16.3211 17.3605 16.8165 16.8632 17.2234 16.3014L19.4042 16.5636C19.9179 16.6254 20.4026 16.2971 20.5355 15.7988L21.1099 13.6521C21.2434 13.1525 20.9854 12.6243 20.5101 12.4239L18.5015 11.5729ZM12.712 15.8203C10.77 16.3407 8.76705 15.1841 8.24673 13.2423C7.72642 11.3005 8.88274 9.29738 10.8248 8.77701C12.7666 8.2567 14.7696 9.41325 15.2899 11.3551C15.8102 13.2969 14.6539 15.3 12.712 15.8203Z" fill="#6ADFB5"/>
</svg>
